<svg id="Capa_1" enable-background="new 0 0 512.001 512.001" height="512" viewBox="0 0 512.001 512.001" width="512" xmlns="http://www.w3.org/2000/svg"><g><g><path d="m256 414.133c-4.233 0-8.112-2.773-9.47-6.786-1.357-4.008.016-8.573 3.384-11.145 3.234-2.469 7.731-2.711 11.224-.637 3.58 2.126 5.492 6.448 4.663 10.528-.938 4.611-5.084 8.04-9.801 8.04z"/><path d="m194.529 344.145c-4.621 0-9.186-1.454-13.092-4.292-6.398-4.649-9.811-12.129-9.127-20.008l4.95-57.035-37.529-43.233c-5.185-5.972-6.821-14.029-4.377-21.551s8.503-13.079 16.209-14.863l55.773-12.917 29.52-49.052c4.079-6.777 11.235-10.823 19.145-10.823s15.065 4.046 19.145 10.822l29.52 49.053 55.773 12.917c7.706 1.785 13.765 7.341 16.209 14.863s.808 15.579-4.377 21.552l-37.529 43.232 4.95 57.035c.684 7.879-2.729 15.359-9.127 20.008s-14.566 5.584-21.85 2.497l-52.715-22.331-52.715 22.333c-2.836 1.201-5.808 1.793-8.756 1.793zm61.471-213.774c-.604 0-1.443.197-2.008 1.136l-31.704 52.682c-1.396 2.32-3.674 3.975-6.313 4.586l-59.901 13.873c-1.066.247-1.513.984-1.699 1.559-.188.575-.259 1.434.459 2.26l40.307 46.433c1.775 2.045 2.645 4.722 2.411 7.42l-5.316 61.256c-.095 1.091.468 1.744.957 2.099.49.356 1.286.688 2.291.262l56.616-23.987c2.492-1.056 5.309-1.056 7.801 0l56.615 23.985c1.01.428 1.803.094 2.292-.262.489-.355 1.052-1.008.957-2.099l-5.316-61.256c-.233-2.698.636-5.375 2.411-7.42l40.307-46.432c.718-.827.646-1.686.459-2.261s-.633-1.312-1.699-1.559l-59.901-13.873c-2.639-.611-4.916-2.266-6.313-4.586l-31.704-52.682c-.565-.937-1.404-1.134-2.009-1.134z"/><path d="m507.196 252.108c-1.483-.902-36.651-21.944-64.62-9.187-2.422 1.105-4.688 2.417-6.806 3.892.228-4.289.298-8.6.207-12.923 1.724.088 3.64.145 5.705.145 14.146 0 35.224-2.694 48.563-16.806 21.114-22.337 12.576-62.423 12.202-64.119-.883-4.002-4.119-7.062-8.165-7.718-1.713-.278-42.215-6.551-63.331 15.788-3.365 3.56-5.977 7.571-7.989 11.805-2.665-3.008-7.003-4.227-10.996-2.732-5.171 1.938-7.793 7.701-5.855 12.873 30.043 80.193-10.573 169.833-90.552 200.018-10.318 2.58-17.705 6.075-18.385 6.403-3.693 1.778-5.928 5.63-5.637 9.719.123 1.732 3.319 42.591 29.91 58.013 8.075 4.684 17.112 6.329 25.831 6.329 19.988 0 38.286-8.653 39.376-9.177 3.692-1.778 5.927-5.63 5.636-9.718-.123-1.732-3.318-42.592-29.909-58.014-1.664-.965-3.368-1.801-5.102-2.52 4.094-2.702 8.052-5.562 11.865-8.569 7.246 12.002 21.434 30.443 41.876 34.333 2.735.521 5.458.757 8.156.757 27.09-.002 51.313-23.922 52.429-25.039 2.896-2.901 3.729-7.275 2.101-11.037-.69-1.593-17.238-39.089-47.435-44.834-5.547-1.055-11.059-.945-16.369-.054 3.522-5.735 6.712-11.665 9.554-17.756 8.306 3.917 22.325 9.27 36.914 9.27 6.737 0 13.599-1.143 20.071-4.095 27.966-12.758 35.128-53.112 35.419-54.824.686-4.043-1.162-8.094-4.664-10.223zm-61.711-77.188c9.14-9.671 27.096-11.025 38.46-10.472 1.075 10.146 1.453 28.793-8.235 39.042-9.154 9.685-27.154 11.027-38.511 10.469-1.198-11.316-.867-29.357 8.286-39.039zm-74.107 264.157c-10.739 3.764-28.374 7.584-39.899.901-11.51-6.676-16.952-23.846-19.023-35.028 9.628-3.377 27.687-8.028 39.891-.951 11.527 6.686 16.968 23.897 19.031 35.078zm51.153-89.641c13.092 2.491 23.926 16.929 29.575 26.795-7.894 6.314-20.904 14.472-32.886 14.471-1.508 0-3.001-.129-4.464-.408-13.071-2.487-23.894-16.886-29.55-26.751 7.966-6.374 23.461-16.745 37.325-14.107zm45.608-50.479c-12.11 5.522-29.259.022-39.575-4.76 2.819-9.806 9.48-27.226 22.313-33.08 12.108-5.524 29.258-.023 39.575 4.76-2.82 9.806-9.481 27.226-22.313 33.08z"/><path d="m214.829 389.547c-.679-.327-8.068-3.823-18.388-6.404-79.977-30.186-120.592-119.825-90.549-200.017 1.938-5.172-.685-10.935-5.855-12.873-3.992-1.495-8.331-.276-10.996 2.732-2.012-4.234-4.624-8.245-7.989-11.804-21.116-22.338-61.619-16.066-63.332-15.788-4.046.656-7.282 3.715-8.165 7.718-.374 1.696-8.912 41.781 12.202 64.119 13.341 14.113 34.417 16.806 48.563 16.806 2.064 0 3.981-.057 5.705-.145-.091 4.323-.021 8.633.207 12.923-2.119-1.476-4.384-2.788-6.806-3.892-27.962-12.758-63.137 8.285-64.62 9.187-3.502 2.129-5.351 6.181-4.663 10.222.291 1.711 7.453 42.065 35.419 54.824 6.474 2.954 13.332 4.095 20.071 4.095 14.587 0 28.608-5.353 36.914-9.27 2.843 6.091 6.033 12.021 9.555 17.756-5.31-.891-10.822-1.001-16.37.054-30.196 5.745-46.744 43.241-47.435 44.834-1.628 3.762-.795 8.136 2.101 11.037 1.115 1.118 25.336 25.039 52.429 25.039 2.696 0 5.423-.237 8.156-.757 20.443-3.889 34.63-22.331 41.876-34.333 3.813 3.007 7.77 5.867 11.865 8.569-1.734.719-3.439 1.555-5.103 2.52-26.591 15.421-29.786 56.282-29.909 58.014-.291 4.088 1.943 7.94 5.636 9.718 1.09.525 19.386 9.177 39.376 9.177 8.717 0 17.757-1.646 25.831-6.329 26.591-15.422 29.787-56.281 29.91-58.013.291-4.09-1.943-7.942-5.636-9.719zm-170.967-90.59c-12.124-5.531-19.216-22.13-22.359-33.057 10.32-4.792 27.499-10.314 39.622-4.783 12.124 5.531 19.216 22.13 22.359 33.057-10.32 4.793-27.499 10.314-39.622 4.783zm30.941-84.998c-11.355.556-29.359-.786-38.512-10.468-9.154-9.685-9.483-27.732-8.287-39.039 11.366-.557 29.359.786 38.513 10.468 9.154 9.685 9.483 27.732 8.286 39.039zm22.442 176.336c-1.465.279-2.954.408-4.464.408-11.984-.001-25-8.162-32.886-14.469 5.655-9.875 16.487-24.307 29.575-26.797 13.093-2.49 28.471 6.959 37.35 14.062-5.655 9.874-16.488 24.305-29.575 26.796zm83.277 49.683c-11.511 6.675-29.115 2.873-39.851-.883 1.851-10.034 6.783-28.021 18.983-35.096 8.703-5.047 20.89-4.104 30.958-1.721.235.066.47.122.706.17 2.981.732 5.76 1.584 8.188 2.433-1.85 10.035-6.784 28.021-18.984 35.097z"/><g><g><g><path d="m367.199 132.92c-2.563 0-5.124-.979-7.077-2.936-3.902-3.909-3.896-10.241.013-14.142l13.142-13.117c3.909-3.901 10.24-3.896 14.142.013s3.896 10.241-.013 14.142l-13.142 13.117c-1.953 1.949-4.509 2.923-7.065 2.923z"/></g></g><g><g><path d="m144.802 132.92c-2.557 0-5.112-.974-7.064-2.922l-13.142-13.117c-3.909-3.901-3.915-10.233-.013-14.142 3.9-3.909 10.233-3.915 14.142-.013l13.142 13.117c3.909 3.901 3.915 10.233.013 14.142-1.953 1.956-4.516 2.935-7.078 2.935z"/></g></g><g><g><path d="m256 86.945c-5.522 0-10-4.477-10-10v-18.551c0-5.523 4.478-10 10-10s10 4.477 10 10v18.551c0 5.523-4.477 10-10 10z"/></g></g></g></g></g></svg>